<svg xmlns="http://www.w3.org/2000/svg" width="60" height="60" viewBox="0 0 60 60"><defs><style>.a{fill:#218491;}</style></defs><path class="a" d="M4673.385,874.538l.651-.651-.651-.651c-4.379-4.378-7.594-6.718-10.828-7.022q.155-.187.3-.387c1.834-2.518,2.391-6.352,2.391-12.233v-.921h-.919c-6.193,0-10.121.619-12.623,2.692-.016-.162-.037-.324-.062-.486-.483-3.078-2.8-6.184-6.958-10.342l-.651-.651-.651.651c-4.379,4.378-6.718,7.594-7.021,10.829-.125-.1-.254-.2-.387-.3-2.518-1.834-6.353-2.392-12.234-2.392h-.921v.921c0,6.192.619,10.12,2.693,12.622-.162.015-.323.036-.486.061-3.077.483-6.183,2.8-10.342,6.958l-.65.651.65.651c4.379,4.378,7.593,6.718,10.83,7.021q-.157.188-.3.387c-1.835,2.518-2.393,6.353-2.393,12.233v.921h.921c6.192,0,10.12-.619,12.622-2.692.016.162.035.324.062.487.483,3.077,2.8,6.183,6.958,10.341l.652.651.651-.651c4.376-4.378,6.716-7.593,7.02-10.828.125.1.255.2.389.3,2.517,1.835,6.351,2.393,12.234,2.393h.919v-.921c0-6.192-.619-10.12-2.691-12.622.161-.016.323-.036.485-.061C4666.121,881.013,4669.227,878.7,4673.385,874.538Zm-22.493-14.8c.11-.244.21-.485.3-.726a6.42,6.42,0,0,1,1.391-1.972c1.952-1.854,5.33-2.464,10.82-2.523-.052,4.969-.558,8.211-2.027,10.228a6.244,6.244,0,0,1-2.536,2.012c-.188.072-.376.15-.566.235a17.48,17.48,0,0,1-4.59.915c0-.317,0-.627.01-.933a25.99,25.99,0,0,1,.423-4.513c.04-.192.082-.381.128-.564a3.239,3.239,0,0,1,2.981-2.982,16.507,16.507,0,0,1,2.148-.37A16.271,16.271,0,0,1,4659,860.7a4.543,4.543,0,0,1-.94,2.042,3.3,3.3,0,0,1-1.177.677,8.721,8.721,0,0,1-1.043.307c-.073.508-.121,1.022-.158,1.529l-.022.387a11.749,11.749,0,0,0,1.862-.5,5.067,5.067,0,0,0,1.84-1.095,6.266,6.266,0,0,0,1.422-2.9,21.284,21.284,0,0,0,.52-3.545l.077-1.059-1.059.077a21.081,21.081,0,0,0-3.545.52,4.992,4.992,0,0,0-4.32,4.32,21.3,21.3,0,0,0-.52,3.546v.014c-.035.628-.065,1.245-.082,1.919-.015.651-.015,1.309.013,2l.039.942.968-.062c.424-.027.833-.059,1.23-.1-1.038.854-2.136,1.863-3.318,3.027l0,0c-.14.137-.323.337-.519.555l-.021-.174a37.27,37.27,0,0,1-.41-4.81c.031-3.764.309-6.55,1.052-8.577Zm-6.855-13.245c3.475,3.552,5.412,6.2,5.8,8.666a6.243,6.243,0,0,1-.371,3.217c-.082.184-.16.372-.235.567a17.514,17.514,0,0,1-2.6,3.893c-.225-.223-.442-.445-.653-.666a25.972,25.972,0,0,1-2.891-3.49c-.109-.164-.211-.327-.308-.489a3.239,3.239,0,0,1,0-4.217,1.334,1.334,0,1,1,2.514,0,4.562,4.562,0,0,1,.78,2.109,3.291,3.291,0,0,1-.354,1.312,8.562,8.562,0,0,1-.52.955c.31.411.637.809.97,1.194l.259.289a11.877,11.877,0,0,0,.96-1.674,5.076,5.076,0,0,0,.526-2.074,6.268,6.268,0,0,0-1.043-3.055,21.165,21.165,0,0,0-2.14-2.874l-.695-.8-.694.8a21.152,21.152,0,0,0-2.14,2.875,4.99,4.99,0,0,0,0,6.11,21.17,21.17,0,0,0,2.14,2.874l.009.011c.42.468.836.927,1.3,1.414.451.471.915.937,1.424,1.407l.693.639.64-.729c.281-.318.547-.631.8-.938-.129,1.337-.192,2.827-.205,4.486v0c0,.195.009.466.026.758l-.139-.107h0a37.285,37.285,0,0,1-3.69-3.113c-2.641-2.682-4.414-4.85-5.321-6.81-.093-.251-.194-.492-.3-.725a6.469,6.469,0,0,1-.412-2.378C4638.239,853.239,4640.195,850.42,4644.036,846.5Zm4.572,28.662-1.119,1.43-1.118,1.43-1.8.22-1.8.22-1.43-1.118-1.431-1.119-.22-1.8-.22-1.8,1.119-1.43,1.119-1.431,1.8-.22,1.8-.22,1.431,1.119,1.431,1.119.219,1.8Zm-23.939-20.638c4.969.054,8.211.558,10.229,2.028a6.246,6.246,0,0,1,2.013,2.536q.108.282.235.567a17.4,17.4,0,0,1,.915,4.589c-.316,0-.625,0-.932-.009a25.933,25.933,0,0,1-4.513-.423c-.192-.039-.381-.082-.564-.127a3.24,3.24,0,0,1-2.981-2.982,16.352,16.352,0,0,1-.371-2.149,16.424,16.424,0,0,1,2.149.37,4.561,4.561,0,0,1,2.042.94,3.307,3.307,0,0,1,.677,1.177,8.854,8.854,0,0,1,.307,1.043c.508.072,1.022.121,1.529.158l.387.021a11.9,11.9,0,0,0-.5-1.863,5.077,5.077,0,0,0-1.1-1.839,6.255,6.255,0,0,0-2.9-1.422,21.2,21.2,0,0,0-3.546-.52l-1.058-.077.077,1.059a21,21,0,0,0,.52,3.546,4.989,4.989,0,0,0,4.319,4.32,21.161,21.161,0,0,0,3.545.52h.015c.627.035,1.245.066,1.919.083.65.016,1.309.015,2-.013l.941-.038-.063-.967q-.041-.636-.1-1.23c.853,1.037,1.862,2.135,3.026,3.318l0,0c.137.139.337.323.555.518l-.174.021a37.179,37.179,0,0,1-4.81.409c-3.765-.03-6.551-.309-8.579-1.053-.243-.112-.485-.212-.726-.3a6.452,6.452,0,0,1-1.972-1.39C4625.338,863.387,4624.728,860.01,4624.669,854.519Zm-8.021,19.367c3.551-3.476,6.2-5.411,8.666-5.8a6.239,6.239,0,0,1,3.216.371c.184.082.372.159.565.233a17.48,17.48,0,0,1,3.893,2.6c-.222.226-.444.442-.667.653a26.015,26.015,0,0,1-3.49,2.891q-.245.163-.489.309a3.239,3.239,0,0,1-4.216,0,16.27,16.27,0,0,1-1.781-1.257,16.219,16.219,0,0,1,1.781-1.257,4.553,4.553,0,0,1,2.107-.78,3.312,3.312,0,0,1,1.312.354,8.972,8.972,0,0,1,.956.521c.409-.309.808-.638,1.192-.97l.29-.259a11.884,11.884,0,0,0-1.674-.961,5.092,5.092,0,0,0-2.075-.526,6.258,6.258,0,0,0-3.055,1.044,21.106,21.106,0,0,0-2.874,2.14l-.8.695.8.695a21.033,21.033,0,0,0,2.875,2.139,4.989,4.989,0,0,0,6.109,0,21.129,21.129,0,0,0,2.875-2.139l.01-.011c.469-.42.928-.835,1.415-1.3.472-.449.936-.915,1.405-1.424l.64-.693-.729-.64q-.478-.421-.938-.8c1.337.129,2.827.192,4.486.205h0c.2,0,.466-.01.759-.026l-.107.138a37.13,37.13,0,0,1-3.113,3.69c-2.683,2.641-4.85,4.415-6.81,5.322h0c-.252.094-.493.193-.725.3a6.466,6.466,0,0,1-2.379.412C4623.391,879.684,4620.571,877.727,4616.648,873.886Zm20.533,14.146c-.11.244-.212.486-.3.727a6.475,6.475,0,0,1-1.391,1.972c-1.953,1.854-5.33,2.464-10.821,2.523.054-4.969.558-8.211,2.028-10.228a6.249,6.249,0,0,1,2.536-2.012c.188-.072.377-.151.566-.235a17.468,17.468,0,0,1,4.589-.915c0,.317,0,.627-.008.933a25.884,25.884,0,0,1-.423,4.512c-.04.192-.081.382-.128.564a3.241,3.241,0,0,1-2.981,2.982,16.508,16.508,0,0,1-2.149.37,16.513,16.513,0,0,1,.371-2.149,4.564,4.564,0,0,1,.94-2.042,3.311,3.311,0,0,1,1.177-.677,8.672,8.672,0,0,1,1.043-.307c.073-.508.121-1.022.159-1.53l.021-.387a11.882,11.882,0,0,0-1.863.5,5.074,5.074,0,0,0-1.839,1.1,6.26,6.26,0,0,0-1.421,2.9,21.087,21.087,0,0,0-.52,3.545l-.077,1.059,1.058-.078a21.031,21.031,0,0,0,3.547-.52,4.994,4.994,0,0,0,4.32-4.32,21.311,21.311,0,0,0,.519-3.546v-.014c.036-.628.065-1.246.082-1.919.016-.651.015-1.309-.014-2l-.037-.942-.967.062q-.636.04-1.23.1c1.038-.854,2.135-1.863,3.318-3.028l0,0c.139-.137.322-.337.518-.555l.021.174a37.011,37.011,0,0,1,.409,4.81c-.029,3.764-.309,6.55-1.052,8.578Zm6.854,13.242c-3.477-3.551-5.411-6.2-5.8-8.666a6.242,6.242,0,0,1,.372-3.216c.083-.184.16-.372.234-.566a17.42,17.42,0,0,1,2.6-3.893c.226.223.441.444.654.666a26.049,26.049,0,0,1,2.891,3.49c.108.164.212.327.309.489a3.239,3.239,0,0,1,0,4.217,1.334,1.334,0,1,1-2.514,0,4.557,4.557,0,0,1-.78-2.108,3.288,3.288,0,0,1,.354-1.311,8.615,8.615,0,0,1,.52-.955c-.308-.41-.637-.808-.969-1.194l-.258-.289h0a11.823,11.823,0,0,0-.961,1.673,5.094,5.094,0,0,0-.526,2.074,6.248,6.248,0,0,0,1.044,3.056,21.224,21.224,0,0,0,2.139,2.874l.695.8.695-.8a21.231,21.231,0,0,0,2.14-2.875,5,5,0,0,0,0-6.11,21.245,21.245,0,0,0-2.14-2.874l-.011-.01c-.42-.469-.836-.928-1.3-1.415-.449-.471-.914-.936-1.422-1.406l-.694-.639-.639.728q-.423.478-.8.939c.128-1.338.19-2.827.205-4.487v0c0-.195-.012-.467-.026-.759l.137.107a37.1,37.1,0,0,1,3.691,3.112c2.64,2.682,4.414,4.85,5.323,6.81q.139.376.3.725a6.418,6.418,0,0,1,.411,2.378C4649.833,894.531,4647.876,897.35,4644.036,901.274Zm19.367-8.02c-4.97-.053-8.212-.558-10.228-2.027a6.239,6.239,0,0,1-2.012-2.536h0c-.073-.188-.151-.377-.236-.567a17.51,17.51,0,0,1-.916-4.589c.317,0,.626,0,.934.009a25.909,25.909,0,0,1,4.512.423q.289.059.564.127a3.241,3.241,0,0,1,2.981,2.982,16.269,16.269,0,0,1,.372,2.149,16.466,16.466,0,0,1-2.148-.37,4.563,4.563,0,0,1-2.042-.94,3.307,3.307,0,0,1-.678-1.177,8.675,8.675,0,0,1-.306-1.043c-.509-.072-1.022-.121-1.531-.159l-.385-.021a11.57,11.57,0,0,0,.5,1.863,5.083,5.083,0,0,0,1.095,1.839,6.263,6.263,0,0,0,2.9,1.421,21.151,21.151,0,0,0,3.545.52l1.059.077-.078-1.059a21.087,21.087,0,0,0-.519-3.545,4.993,4.993,0,0,0-4.32-4.32,21.157,21.157,0,0,0-3.546-.52h-.014c-.628-.036-1.246-.066-1.919-.082-.652-.016-1.31-.016-2,.013l-.941.038.062.968q.041.635.1,1.23c-.854-1.037-1.862-2.135-3.027-3.318l0,0c-.136-.139-.338-.322-.555-.518l.175-.021a37.232,37.232,0,0,1,4.809-.408c3.765.029,6.552.308,8.58,1.052.242.112.485.212.724.3a6.422,6.422,0,0,1,1.972,1.39C4662.734,884.386,4663.344,887.763,4663.4,893.253Zm-3.861-13.939q-.275-.123-.565-.233a17.525,17.525,0,0,1-3.894-2.6c.224-.226.445-.442.667-.653a25.985,25.985,0,0,1,3.49-2.891q.245-.163.49-.309a3.244,3.244,0,0,1,4.217,0,16.443,16.443,0,0,1,1.781,1.258,16.464,16.464,0,0,1-1.781,1.257,4.559,4.559,0,0,1-2.109.779,3.3,3.3,0,0,1-1.312-.353,8.871,8.871,0,0,1-.954-.52c-.412.309-.809.637-1.195.969l-.288.259a11.781,11.781,0,0,0,1.674.961,5.073,5.073,0,0,0,2.074.526,6.258,6.258,0,0,0,3.056-1.044,21.216,21.216,0,0,0,2.874-2.139l.8-.695-.8-.695a21.2,21.2,0,0,0-2.875-2.14,4.992,4.992,0,0,0-6.111,0,21.187,21.187,0,0,0-2.874,2.14l-.011.011c-.468.42-.927.835-1.415,1.3-.471.449-.936.914-1.407,1.424l-.639.693.729.64q.479.42.939.8c-1.338-.129-2.828-.192-4.487-.2h0c-.2,0-.467.01-.759.026l.107-.138a36.931,36.931,0,0,1,3.112-3.69c2.682-2.641,4.85-4.414,6.81-5.322h0c.25-.093.492-.192.726-.3a6.431,6.431,0,0,1,2.377-.411c2.692.07,5.512,2.027,9.436,5.867-3.551,3.476-6.2,5.412-8.666,5.8A6.248,6.248,0,0,1,4659.542,879.314Z" transform="translate(-4614.036 -843.887)"/></svg>